<svg width="32" height="32" viewBox="0 0 32 32" fill="none" xmlns="http://www.w3.org/2000/svg">
<rect width="32" height="32" fill="#FFFEFD"/>
<path d="M13.749 6C19.1332 6.00001 23.498 10.3648 23.498 15.749C23.498 16.9074 23.2931 18.0174 22.9219 19.0479C22.8499 19.2477 22.8635 19.4658 22.915 19.6719C22.9427 19.7826 23.9453 23.7969 23.9453 23.7969C24.2694 25.0947 23.0947 26.2693 21.7969 25.9453L17.6719 24.915C17.4659 24.8636 17.2476 24.8509 17.0479 24.9229C16.0174 25.2939 14.9072 25.498 13.749 25.498C8.36479 25.498 4 21.1333 4 15.749C4 10.3648 8.36479 6 13.749 6ZM10 15C9.44772 15 9 15.4477 9 16C9 16.5523 9.44772 17 10 17C10.5523 17 11 16.5523 11 16C11 15.4477 10.5523 15 10 15ZM14 15C13.4477 15 13 15.4477 13 16C13 16.5523 13.4477 17 14 17C14.5523 17 15 16.5523 15 16C15 15.4477 14.5523 15 14 15ZM18 15C17.4477 15 17 15.4477 17 16C17 16.5523 17.4477 17 18 17C18.5523 17 19 16.5523 19 16C19 15.4477 18.5523 15 18 15Z" fill="#DADADA"/>
</svg>
