<svg width="32" height="32" viewBox="0 0 32 32" fill="none" xmlns="http://www.w3.org/2000/svg">
<rect width="32" height="32" fill="#FFFEFD"/>
<path d="M14.8193 6.38574C15.5224 5.87153 16.4776 5.87153 17.1807 6.38574L25.1807 12.2363C25.6956 12.613 26 13.2126 26 13.8506V24C25.9998 25.1044 25.1044 26 24 26H8C6.89557 26 6.00023 25.1044 6 24V13.8506C6 13.2126 6.30444 12.613 6.81934 12.2363L14.8193 6.38574ZM15 18.3008C14.4477 18.3008 14 18.7485 14 19.3008V23.1631C14.0003 23.7152 14.4479 24.1631 15 24.1631H17C17.5521 24.1631 17.9997 23.7151 18 23.1631V19.3008C18 18.7485 17.5523 18.3008 17 18.3008H15Z" fill="black"/>
</svg>
