<svg width="32" height="32" viewBox="0 0 32 32" fill="none" xmlns="http://www.w3.org/2000/svg">
<rect width="32" height="32" fill="#FFFEFD"/>
<path d="M14.8193 6.38468C15.5224 5.87047 16.4776 5.87047 17.1807 6.38468L25.1807 12.2353C25.6956 12.6118 25.9999 13.2116 26 13.8495V23.9989C26 25.1035 25.1046 25.9989 24 25.9989H8C6.89543 25.9989 6 25.1035 6 23.9989V13.8495C6.0001 13.2116 6.30445 12.6118 6.81934 12.2353L14.8193 6.38468ZM15 18.3007C14.4477 18.3007 14 18.7484 14 19.3007V23.162C14 23.7143 14.4477 24.162 15 24.162H17C17.5523 24.162 18 23.7143 18 23.162V19.3007C18 18.7484 17.5523 18.3007 17 18.3007H15Z" fill="#DADADA"/>
</svg>
