<svg width="32" height="32" viewBox="0 0 32 32" fill="none" xmlns="http://www.w3.org/2000/svg">
<rect width="32" height="32" fill="#FFFEFD"/>
<path d="M15.9983 4.62891C17.5218 4.62907 18.757 5.86415 18.757 7.3877V7.71875C20.9925 8.22108 22.7362 10.088 23.011 12.4492L23.716 18.501L24.8039 21.2148C25.3311 22.5287 24.3641 23.9597 22.9485 23.96H9.04904C7.63336 23.9598 6.66553 22.5288 7.1926 21.2148L8.28146 18.501L8.98557 12.4492C9.26029 10.0883 11.0045 8.22238 13.2395 7.71973V7.3877C13.2395 5.86405 14.4746 4.62891 15.9983 4.62891Z" fill="#DADADA"/>
<path d="M19.648 25.3246C19.648 26.455 18.9177 27.3714 15.9963 27.3714C13.0748 27.3714 12.3445 26.455 12.3445 25.3246C12.3445 25.3246 12.3445 24.6426 15.9963 24.6426C19.648 24.6426 19.648 25.3246 19.648 25.3246Z" fill="#DADADA"/>
</svg>
