<svg width="32" height="32" viewBox="0 0 32 32" fill="none" xmlns="http://www.w3.org/2000/svg">
<rect width="32" height="32" fill="#FFFEFD"/>
<path d="M15.9977 4.62891C17.5214 4.62891 18.7565 5.86405 18.7565 7.3877V7.71973C20.9921 8.22198 22.7366 10.0889 23.0114 12.4502L23.7155 18.502L24.8044 21.2158C25.3312 22.5297 24.3636 23.96 22.9479 23.96H9.0495C7.63379 23.96 6.66615 22.5297 7.19305 21.2158L8.28192 18.502L8.98602 12.4502C9.26074 10.0894 11.0041 8.22247 13.239 7.71973V7.3877C13.239 5.8641 14.4741 4.62898 15.9977 4.62891Z" fill="black"/>
<path d="M19.648 25.3246C19.648 26.455 18.9176 27.3714 15.9962 27.3714C13.0747 27.3714 12.3444 26.455 12.3444 25.3246C12.3444 25.3246 12.3444 24.6426 15.9962 24.6426C19.648 24.6426 19.648 25.3246 19.648 25.3246Z" fill="black"/>
</svg>
