<svg width="22" height="16" viewBox="0 0 22 16" fill="none" xmlns="http://www.w3.org/2000/svg">
<path d="M12.23 0C12.6037 5.97707e-06 12.9469 0.209093 13.1187 0.541016L13.9927 2.23145H17.9888C19.0049 2.23145 19.8599 2.99353 19.9761 4.00293L21.0552 13.3945C21.1917 14.5817 20.2638 15.6229 19.0688 15.623H2.00049C0.80542 15.623 -0.123309 14.5818 0.0131836 13.3945L1.09326 4.00293C1.20946 2.99369 2.0637 2.23166 3.07959 2.23145H7.06592L7.94092 0.541016C8.11268 0.209151 8.45493 6.87431e-05 8.82861 0H12.23ZM10.5278 4.53906C7.97744 4.53942 5.90974 6.60471 5.90967 9.15234C5.90967 11.7 7.9774 13.7653 10.5278 13.7656C12.9989 13.7656 15.0175 11.8273 15.1411 9.38965L15.147 9.15234C15.1469 6.60449 13.0785 4.53906 10.5278 4.53906ZM10.5278 6.03906C12.2517 6.03906 13.6469 7.43448 13.647 9.15234C13.647 10.8703 12.2517 12.2656 10.5278 12.2656C8.80426 12.2653 7.40967 10.87 7.40967 9.15234C7.40974 7.4347 8.8043 6.03942 10.5278 6.03906ZM15.9175 3.76953C15.4925 3.76953 15.1472 4.11359 15.147 4.53809C15.147 4.96274 15.4924 5.30762 15.9175 5.30762C16.3424 5.30738 16.687 4.96259 16.687 4.53809C16.6868 4.11374 16.3423 3.76977 15.9175 3.76953Z" fill="#A8A8A8"/>
</svg>
