<svg width="25" height="22" viewBox="0 0 25 22" fill="none" xmlns="http://www.w3.org/2000/svg">
<path d="M21.5459 0.75V5.85094" stroke="#A8A8A8" stroke-width="1.5" stroke-linecap="round"/>
<path d="M24.1011 3.2959L19.0001 3.2959" stroke="#A8A8A8" stroke-width="1.5" stroke-linecap="round"/>
<path d="M16.0955 9.25C17.1081 9.25 18.0454 9.8365 18.8066 10.5032C19.5985 11.1968 20.3629 12.1222 21.0451 13.0914C22.4049 15.0233 23.5497 17.292 24 18.6494L22.1699 19.25C21.7905 18.1063 20.7427 16.0041 19.4663 14.1907C18.8305 13.2873 18.1658 12.4964 17.5327 11.9418C16.8689 11.3604 16.385 11.1668 16.0955 11.1668C15.1196 11.1669 14.5865 11.8525 13.96 13.1476C13.6898 13.7062 13.3719 14.4504 13.0075 14.9968C12.6299 15.5627 12.0123 16.214 11.0211 16.214C10.3524 16.214 9.80636 16.0486 9.37621 15.6859C9.00093 15.3694 8.78774 14.9425 8.6876 14.7675C8.56127 14.5467 8.50135 14.4786 8.42881 14.4308C8.3609 14.386 8.17029 14.2897 7.6701 14.2897C7.37708 14.2897 6.98975 14.443 6.51026 14.851C6.04149 15.2499 5.58186 15.8105 5.16175 16.4204C4.74599 17.0239 4.393 17.6398 4.12802 18.1264C3.99427 18.372 3.88861 18.574 3.80077 18.7385C3.75906 18.8166 3.71813 18.8925 3.68267 18.9542C3.66514 18.9847 3.6434 19.0216 3.61962 19.0581C3.60733 19.077 3.55236 19.1629 3.46835 19.2465L2.10572 17.891C2.0617 17.9348 2.03344 17.9721 2.02408 17.9846C2.01191 18.0009 2.00413 18.0126 2.00197 18.0159C1.99798 18.0221 1.99984 18.0196 2.0095 18.0028C2.02853 17.9697 2.05701 17.9175 2.09866 17.8395C2.17762 17.6916 2.29493 17.4679 2.43343 17.2136C2.71298 16.7003 3.10202 16.0188 3.57186 15.3368C4.03737 14.661 4.60706 13.948 5.25727 13.3947C5.8968 12.8504 6.71843 12.3728 7.6701 12.3728C8.41432 12.3728 9.0137 12.5168 9.49337 12.8328C9.96836 13.1458 10.2137 13.5591 10.3627 13.8193C10.5376 14.1251 10.5699 14.1794 10.6224 14.2237C10.632 14.2318 10.6496 14.2454 10.6948 14.2597C10.746 14.2759 10.8457 14.2971 11.0211 14.2971C11.0355 14.2972 11.1481 14.317 11.4016 13.937C11.6684 13.5371 11.8832 13.0196 12.2233 12.3164C12.8176 11.088 13.8162 9.25006 16.0955 9.25Z" fill="#A8A8A8"/>
<path d="M0 15.9813V6.51866C2.29651e-06 3.60886 2.43805 1.25 5.44554 1.25H17.1956C17.7424 1.25 18.1857 1.67889 18.1857 2.20794C18.1857 2.73699 17.7424 3.16587 17.1956 3.16588H5.44554C3.53169 3.16588 1.9802 4.66697 1.9802 6.51866V15.9813C1.9802 17.833 3.53169 19.3341 5.44554 19.3341H19.5545C21.4683 19.3341 23.0198 17.833 23.0198 15.9813V6.67667C23.0198 6.14761 23.4631 5.71873 24.0099 5.71873C24.5567 5.71873 25 6.14761 25 6.67667V15.9813C25 18.8911 22.5619 21.25 19.5545 21.25H5.44554C2.43805 21.25 0 18.8911 0 15.9813Z" fill="#A8A8A8"/>
<path d="M8 7.75C8 8.57843 7.32843 9.25 6.5 9.25C5.67157 9.25 5 8.57843 5 7.75C5 6.92157 5.67157 6.25 6.5 6.25C7.32843 6.25 8 6.92157 8 7.75Z" fill="#A8A8A8"/>
</svg>
