<svg width="20" height="20" viewBox="0 0 20 20" fill="none" xmlns="http://www.w3.org/2000/svg">
<path d="M10 0C15.5228 0 20 4.47715 20 10C20 15.5228 15.5228 20 10 20C4.47715 20 0 15.5228 0 10C0 4.47715 4.47715 0 10 0ZM10 13.0557C9.23311 13.0558 8.61139 13.6774 8.61133 14.4443C8.61133 15.2113 9.23308 15.8328 10 15.833C10.7671 15.833 11.3896 15.2114 11.3896 14.4443C11.3896 13.6773 10.767 13.0557 10 13.0557ZM10 4.16699C8.825 4.16699 7.92004 5.20412 8.08008 6.36816L8.76953 11.3838C8.83761 11.8788 9.26111 12.2471 9.76074 12.2471H10.2393C10.7387 12.2469 11.1614 11.8786 11.2295 11.3838L11.9189 6.36816C12.079 5.20419 11.1749 4.16715 10 4.16699Z" fill="#1B1B1B"/>
</svg>
