<svg width="32" height="32" viewBox="0 0 32 32" fill="none" xmlns="http://www.w3.org/2000/svg">
<path d="M12.4363 25.2656L10.3942 24.3251C10.1802 24.2265 10.2001 23.8844 10.4109 23.7789C11.9904 22.9886 13.589 20.8892 14.7812 18.936C15.6653 17.4876 17.5098 16.8417 19.0235 17.6085L19.0827 17.6385C20.2918 18.251 20.94 19.5981 20.6642 20.925L19.864 24.776C19.6593 25.7616 18.754 26.4413 17.7505 26.3631L16.183 26.2409C14.8863 26.1399 13.6177 25.8096 12.4363 25.2656Z" stroke="#5C5C5C" stroke-width="1.25" stroke-linecap="round"/>
<path d="M15.4414 18.2646L20.7248 20.7352" stroke="#5C5C5C" stroke-width="1.25" stroke-linecap="round"/>
<path d="M15.4414 26.0882C16.2542 24.9902 17.4735 23.2059 17.8799 22.3823" stroke="#5C5C5C" stroke-width="1.25" stroke-linecap="round"/>
<path d="M13.0029 24.8528C13.8158 23.7548 15.035 21.9705 15.4414 21.147" stroke="#5C5C5C" stroke-width="1.25" stroke-linecap="round"/>
<path d="M19.7474 18.25L25.0438 7.37104C25.296 6.85292 25.0826 6.22406 24.5671 5.96645C24.0517 5.70884 23.4293 5.92002 23.1771 6.43814L17.8807 17.3171" stroke="#5C5C5C" stroke-width="1.25"/>
<path d="M12.2168 12.7585C12.286 12.9007 12.393 13.0217 12.5254 13.1082L13.4844 13.7351L12.5254 14.3621C12.4262 14.4269 12.3417 14.5112 12.2764 14.6091L12.2168 14.7117L11.7832 15.6023L11.3496 14.7117L11.291 14.6091C11.2256 14.5111 11.1404 14.4269 11.041 14.3621L10.0811 13.7351L11.041 13.1082C11.1734 13.0217 11.2803 12.9007 11.3496 12.7585L11.7832 11.8679L12.2168 12.7585Z" stroke="#5C5C5C" stroke-width="1.25" stroke-linejoin="round"/>
<path d="M9.79102 19.1155C9.86859 19.2548 9.98265 19.3703 10.1211 19.4495L10.9297 19.9114L10.1211 20.3743C10.0172 20.4337 9.92684 20.5135 9.85547 20.6086L9.79102 20.7083L9.34473 21.509L8.89941 20.7083L8.83398 20.6086C8.7626 20.5136 8.67232 20.4337 8.56836 20.3743L7.75879 19.9114L8.56836 19.4495C8.70689 19.3703 8.82181 19.2549 8.89941 19.1155L9.34473 18.3137L9.79102 19.1155Z" stroke="#5C5C5C" stroke-width="1.25" stroke-linejoin="round"/>
</svg>
