<svg width="12" height="12" viewBox="0 0 12 12" fill="none" xmlns="http://www.w3.org/2000/svg">
<circle cx="6" cy="6" r="5.5" stroke="#A8A8A8"/>
<path d="M5.15 5.25V5.40667C5.15 5.45821 5.19179 5.5 5.24333 5.5C5.38509 5.5 5.5 5.61491 5.5 5.75667V7.75C5.5 7.88807 5.38807 8 5.25 8C5.11193 8 5 8.11193 5 8.25V8.66667C5 8.85076 5.14924 9 5.33333 9H6.66667C6.85076 9 7 8.85076 7 8.66667V8.25C7 8.11193 6.88807 8 6.75 8C6.61193 8 6.5 7.88807 6.5 7.75V5.45C6.5 5.20147 6.29853 5 6.05 5H5.4C5.26193 5 5.15 5.11193 5.15 5.25Z" fill="#A8A8A8"/>
<circle cx="6" cy="3.75" r="0.75" fill="#A8A8A8"/>
</svg>
