<svg width="24" height="24" viewBox="0 0 24 24" fill="none" xmlns="http://www.w3.org/2000/svg">
<path d="M10.2607 5.1709C11.7676 5.17093 12.9893 6.39271 12.9893 7.89941C12.9891 9.406 11.7676 10.6269 10.2607 10.627C8.7539 10.627 7.53237 9.40602 7.53223 7.89941C7.53223 6.39269 8.75381 5.1709 10.2607 5.1709Z" stroke="#A8A8A8" stroke-width="1.5"/>
<path d="M16.8691 6.5625C17.6076 6.5625 18.206 7.1611 18.2061 7.89941C18.2061 8.63775 17.6076 9.23633 16.8691 9.23633C16.1307 9.23624 15.5322 8.63769 15.5322 7.89941C15.5322 7.16115 16.1307 6.56259 16.8691 6.5625Z" stroke="#A8A8A8" stroke-width="1.5"/>
<path d="M9.62891 12.8232H10.8936C13.588 12.8234 15.7723 15.0077 15.7725 17.7021C15.7725 18.3241 15.2684 18.8289 14.6465 18.8291H5.87598C5.25408 18.8289 4.75 18.3241 4.75 17.7021C4.7502 15.0077 6.93445 12.8234 9.62891 12.8232Z" stroke="#A8A8A8" stroke-width="1.5" stroke-linecap="round"/>
<path d="M13.7393 12.915L13.9237 12.5203C14.4478 11.3985 15.5741 10.6816 16.8122 10.6816H17.2388C18.764 10.6816 20.0005 11.9181 20.0005 13.4433C20.0005 14.1424 19.4338 14.7091 18.7347 14.7091H15.377" stroke="#A8A8A8" stroke-width="1.5" stroke-linecap="round"/>
</svg>
