<svg width="145" height="145" viewBox="0 0 145 145" fill="none" xmlns="http://www.w3.org/2000/svg">
<circle cx="72.5" cy="72.5" r="72.5" fill="#DADADA"/>
<path d="M79.0518 68.8852C80.9245 68.8852 82.6581 69.9098 84.0659 71.0746C85.5303 72.2863 86.9442 73.9028 88.2059 75.5961C90.7207 78.9711 92.8379 82.9344 93.6708 85.3058L90.2861 86.3551C89.5843 84.3571 87.6466 80.6846 85.2859 77.5165C84.11 75.9383 82.8807 74.5566 81.7098 73.5878C80.4822 72.572 79.5873 72.2339 79.0518 72.2339C77.2469 72.234 76.261 73.4318 75.1024 75.6942C74.6026 76.6701 74.0147 77.9703 73.3406 78.9248C72.6424 79.9133 71.5001 81.0512 69.6671 81.0512C68.4302 81.0512 67.4204 80.7623 66.6248 80.1286C65.9308 79.5758 65.5365 78.8299 65.3513 78.5242C65.1176 78.1384 65.0068 78.0194 64.8727 77.9359C64.7471 77.8578 64.3945 77.6894 63.4695 77.6894C62.9275 77.6894 62.2112 77.9573 61.3244 78.6701C60.4574 79.367 59.6074 80.3464 58.8304 81.4118C58.0615 82.4661 57.4086 83.5421 56.9186 84.3922C56.6712 84.8212 56.4758 85.1741 56.3133 85.4615C56.2362 85.598 56.1605 85.7306 56.0949 85.8384C56.0625 85.8917 56.0223 85.9561 55.9783 86.0199C55.9556 86.0529 55.8539 86.203 55.6985 86.349L53.1784 83.9809C53.097 84.0574 53.0447 84.1226 53.0274 84.1444C53.0049 84.1729 52.9905 84.1934 52.9865 84.1992C52.9792 84.2099 52.9826 84.2057 53.0005 84.1763C53.0357 84.1184 53.0884 84.0273 53.1654 83.891C53.3114 83.6326 53.5284 83.2418 53.7845 82.7975C54.3015 81.9008 55.021 80.7102 55.89 79.5187C56.7509 78.3382 57.8045 77.0925 59.0071 76.1259C60.1898 75.1751 61.7094 74.3407 63.4695 74.3407C64.8459 74.3407 65.9544 74.5922 66.8415 75.1444C67.72 75.6912 68.1738 76.4131 68.4492 76.8678C68.7728 77.402 68.8325 77.4968 68.9296 77.5742C68.9474 77.5883 68.9799 77.6121 69.0636 77.6371C69.1581 77.6654 69.3426 77.7025 69.6671 77.7025C69.6937 77.7026 69.9018 77.7373 70.3706 77.0734C70.8641 76.3747 71.2614 75.4706 71.8904 74.2422C72.9895 72.0961 74.8363 68.8853 79.0518 68.8852Z" fill="#FFFEFD"/>
<path d="M50 80.7911V64.2515C50 59.1656 54.3885 55.0426 59.802 55.0426H80.9521C81.9364 55.0426 82.7343 55.7922 82.7343 56.717C82.7343 57.6417 81.9364 58.3913 80.9521 58.3913H59.802C56.357 58.3913 53.5644 61.015 53.5644 64.2515V80.7911C53.5644 84.0276 56.357 86.6513 59.802 86.6513H85.198C88.643 86.6513 91.4356 84.0276 91.4356 80.7911V64.5277C91.4356 63.603 92.2335 62.8534 93.2178 62.8534C94.2021 62.8534 95 63.603 95 64.5277V80.7911C95 85.877 90.6115 90 85.198 90H59.802C54.3885 90 50 85.877 50 80.7911Z" fill="#FFFEFD"/>
<path d="M64.1762 65.7435C64.1762 67.1746 63.0161 68.3347 61.585 68.3347C60.154 68.3347 58.9939 67.1746 58.9939 65.7435C58.9939 64.3125 60.154 63.1524 61.585 63.1524C63.0161 63.1524 64.1762 64.3125 64.1762 65.7435Z" fill="#FFFEFD"/>
<path d="M87.5659 61.7016L87.5659 56.3445C87.5659 55.602 88.1764 55 88.9296 55C89.6827 55 90.2932 55.602 90.2932 56.3445L90.2932 61.7016L90.2865 61.8394C90.2166 62.5173 89.6355 63.0461 88.9296 63.0461C88.2236 63.0461 87.6425 62.5173 87.5726 61.8394L87.5659 61.7016Z" fill="#FFFEFD"/>
<path d="M86.1918 57.6787L91.6676 57.6787C92.4207 57.6787 93.0312 58.2807 93.0312 59.0232C93.0312 59.7658 92.4207 60.3677 91.6676 60.3677L86.1918 60.3677C85.4386 60.3677 84.8281 59.7658 84.8281 59.0232C84.8281 58.2807 85.4386 57.6787 86.1918 57.6787Z" fill="#FFFEFD"/>
</svg>
