<svg width="32" height="32" viewBox="0 0 32 32" fill="none" xmlns="http://www.w3.org/2000/svg">
<rect width="32" height="32" fill="#FFFEFD"/>
<rect x="4" y="4" width="24" height="24" fill="#FFFEFD"/>
<path d="M6.02219 9.02243C5.79736 7.60435 7.33131 6.53949 8.64662 7.20115L25.0245 14.4448C26.3251 15.0994 26.3252 16.9004 25.0245 17.555L8.64662 24.7987C7.3311 25.4607 5.79688 24.3958 6.02219 22.9774L8.08267 17.5237C8.22967 17.1346 8.60218 16.8772 9.01813 16.8772H14.5339C15.0334 16.8768 15.439 16.4843 15.4394 16.0008C15.4394 15.517 15.0336 15.1248 14.5339 15.1244H9.01819C8.60222 15.1244 8.22969 14.8669 8.0827 14.4777L6.02219 9.02243Z" fill="#DADADA"/>
</svg>
